<svg xmlns="http://www.w3.org/2000/svg" xmlns:xlink="http://www.w3.org/1999/xlink" width="22" height="22" version="1.1" viewBox="0 0 22 22"><title>search</title><desc>Created with Sketch.</desc><g id="Page-1-Copy" fill="none" fill-rule="evenodd" stroke="none" stroke-width="1"><g id="Tools" fill="#FFF" transform="translate(-461.000000, -313.000000)"><g id="Rectangle-39-+-search-icon-+-Search-Tooling" transform="translate(445.000000, 313.000000)"><g id="search" transform="translate(16.000000, 0.000000)"><path id="Shape" d="M9.18367347,15.3061224 L9.18367347,15.3061224 C12.5650087,15.3061224 15.3061224,12.5650087 15.3061224,9.18367347 C15.3061224,5.80233827 12.5650087,3.06122449 9.18367347,3.06122449 C5.80233827,3.06122449 3.06122449,5.80233827 3.06122449,9.18367347 C3.06122449,12.5650087 5.80233827,15.3061224 9.18367347,15.3061224 L9.18367347,15.3061224 Z M9.18367347,18.3673469 L9.18367347,18.3673469 C4.11167067,18.3673469 0,14.2556763 0,9.18367347 C0,4.11167067 4.11167067,0 9.18367347,0 C14.2556763,0 18.3673469,4.11167067 18.3673469,9.18367347 C18.3673469,14.2556763 14.2556763,18.3673469 9.18367347,18.3673469 L9.18367347,18.3673469 Z"/><path id="Rectangle-19" d="M14.6745124,16.6948175 C14.1217655,16.1420706 14.1220467,15.2456094 14.6838281,14.6838281 L14.6838281,14.6838281 C15.2417199,14.1259362 16.1495344,14.1292293 16.6948175,14.6745124 L20.754059,18.7337539 C21.306806,19.2865009 21.3065247,20.182962 20.7447433,20.7447433 L20.7447433,20.7447433 C20.1868515,21.3026352 19.2790371,21.2993422 18.7337539,20.754059 L14.6745124,16.6948175 L14.6745124,16.6948175 Z"/></g></g></g></g></svg>