<svg xmlns="http://www.w3.org/2000/svg" xmlns:xlink="http://www.w3.org/1999/xlink" width="1109" height="515" version="1.1" viewBox="0 0 1109 515"><title>stars</title><desc>Created with Sketch.</desc><defs><filter id="filter-1" width="200%" height="200%" x="-50%" y="-50%" filterUnits="objectBoundingBox"><feGaussianBlur in="SourceGraphic" result="blur" stdDeviation="1.176"/></filter><filter id="filter-2" width="200%" height="200%" x="-50%" y="-50%" filterUnits="objectBoundingBox"><feGaussianBlur in="SourceGraphic" result="blur" stdDeviation="1.176"/></filter><filter id="filter-3" width="200%" height="200%" x="-50%" y="-50%" filterUnits="objectBoundingBox"><feGaussianBlur in="SourceGraphic" result="blur" stdDeviation="1.176"/></filter><filter id="filter-4" width="200%" height="200%" x="-50%" y="-50%" filterUnits="objectBoundingBox"><feGaussianBlur in="SourceGraphic" result="blur" stdDeviation="1.176"/></filter><filter id="filter-5" width="200%" height="200%" x="-50%" y="-50%" filterUnits="objectBoundingBox"><feGaussianBlur in="SourceGraphic" result="blur" stdDeviation="1.176"/></filter><filter id="filter-6" width="200%" height="200%" x="-50%" y="-50%" filterUnits="objectBoundingBox"><feGaussianBlur in="SourceGraphic" result="blur" stdDeviation="1.176"/></filter><filter id="filter-7" width="200%" height="200%" x="-50%" y="-50%" filterUnits="objectBoundingBox"><feGaussianBlur in="SourceGraphic" result="blur" stdDeviation="1.176"/></filter><filter id="filter-8" width="200%" height="200%" x="-50%" y="-50%" filterUnits="objectBoundingBox"><feGaussianBlur in="SourceGraphic" result="blur" stdDeviation="1.176"/></filter><filter id="filter-9" width="200%" height="200%" x="-50%" y="-50%" filterUnits="objectBoundingBox"><feGaussianBlur in="SourceGraphic" result="blur" stdDeviation="1.176"/></filter><filter id="filter-10" width="200%" height="200%" x="-50%" y="-50%" filterUnits="objectBoundingBox"><feGaussianBlur in="SourceGraphic" result="blur" stdDeviation="1.176"/></filter><filter id="filter-11" width="200%" height="200%" x="-50%" y="-50%" filterUnits="objectBoundingBox"><feGaussianBlur in="SourceGraphic" result="blur" stdDeviation="1.176"/></filter><filter id="filter-12" width="200%" height="200%" x="-50%" y="-50%" filterUnits="objectBoundingBox"><feGaussianBlur in="SourceGraphic" result="blur" stdDeviation="1.176"/></filter><filter id="filter-13" width="200%" height="200%" x="-50%" y="-50%" filterUnits="objectBoundingBox"><feGaussianBlur in="SourceGraphic" result="blur" stdDeviation="1.176"/></filter><filter id="filter-14" width="200%" height="200%" x="-50%" y="-50%" filterUnits="objectBoundingBox"><feGaussianBlur in="SourceGraphic" result="blur" stdDeviation="1.176"/></filter><filter id="filter-15" width="200%" height="200%" x="-50%" y="-50%" filterUnits="objectBoundingBox"><feGaussianBlur in="SourceGraphic" result="blur" stdDeviation="1.176"/></filter><filter id="filter-16" width="200%" height="200%" x="-50%" y="-50%" filterUnits="objectBoundingBox"><feGaussianBlur in="SourceGraphic" result="blur" stdDeviation="1.176"/></filter><filter id="filter-17" width="200%" height="200%" x="-50%" y="-50%" filterUnits="objectBoundingBox"><feGaussianBlur in="SourceGraphic" result="blur" stdDeviation="1.176"/></filter><filter id="filter-18" width="200%" height="200%" x="-50%" y="-50%" filterUnits="objectBoundingBox"><feGaussianBlur in="SourceGraphic" result="blur" stdDeviation="1.176"/></filter><filter id="filter-19" width="200%" height="200%" x="-50%" y="-50%" filterUnits="objectBoundingBox"><feGaussianBlur in="SourceGraphic" result="blur" stdDeviation="1.176"/></filter><filter id="filter-20" width="200%" height="200%" x="-50%" y="-50%" filterUnits="objectBoundingBox"><feGaussianBlur in="SourceGraphic" result="blur" stdDeviation="1.176"/></filter><filter id="filter-21" width="200%" height="200%" x="-50%" y="-50%" filterUnits="objectBoundingBox"><feGaussianBlur in="SourceGraphic" result="blur" stdDeviation="1.176"/></filter><filter id="filter-22" width="200%" height="200%" x="-50%" y="-50%" filterUnits="objectBoundingBox"><feGaussianBlur in="SourceGraphic" result="blur" stdDeviation="1.176"/></filter><filter id="filter-23" width="200%" height="200%" x="-50%" y="-50%" filterUnits="objectBoundingBox"><feGaussianBlur in="SourceGraphic" result="blur" stdDeviation="1.176"/></filter><filter id="filter-24" width="200%" height="200%" x="-50%" y="-50%" filterUnits="objectBoundingBox"><feGaussianBlur in="SourceGraphic" result="blur" stdDeviation="1.176"/></filter><filter id="filter-25" width="200%" height="200%" x="-50%" y="-50%" filterUnits="objectBoundingBox"><feGaussianBlur in="SourceGraphic" result="blur" stdDeviation="1.176"/></filter><filter id="filter-26" width="200%" height="200%" x="-50%" y="-50%" filterUnits="objectBoundingBox"><feGaussianBlur in="SourceGraphic" result="blur" stdDeviation="1.176"/></filter><filter id="filter-27" width="200%" height="200%" x="-50%" y="-50%" filterUnits="objectBoundingBox"><feGaussianBlur in="SourceGraphic" result="blur" stdDeviation="1.176"/></filter><filter id="filter-28" width="200%" height="200%" x="-50%" y="-50%" filterUnits="objectBoundingBox"><feGaussianBlur in="SourceGraphic" result="blur" stdDeviation="1.176"/></filter></defs><g id="Page-1-Copy" fill="none" fill-rule="evenodd" stroke="none" stroke-width="1"><g id="Tools" fill="#D8D8D8" transform="translate(-324.000000, -30.000000)"><g id="stars" transform="translate(327.000000, 33.000000)"><circle id="Oval-70" cx="241.5" cy="191.5" r="1.5" filter="url(#filter-1)"/><circle id="Oval-70-Copy" cx="421.5" cy="141.5" r="1.5" filter="url(#filter-2)"/><circle id="Oval-70-Copy-2" cx="541.5" cy="181.5" r="1.5" filter="url(#filter-3)"/><circle id="Oval-70-Copy-3" cx="331.5" cy="121.5" r="1.5" filter="url(#filter-4)"/><circle id="Oval-70-Copy-4" cx="101.5" cy="81.5" r="1.5" filter="url(#filter-5)"/><circle id="Oval-70-Copy-5" cx="11.5" cy="1.5" r="1.5" filter="url(#filter-6)"/><circle id="Oval-70-Copy-6" cx="371.5" cy="1.5" r="1.5" filter="url(#filter-7)"/><circle id="Oval-74" cx="351.5" cy="220.5" r="1.5"/><circle id="Oval-74-Copy" cx="231.5" cy="90.5" r="1.5"/><circle id="Oval-74-Copy-2" cx="261.5" cy="70.5" r="1.5"/><circle id="Oval-74-Copy-3" cx="151.5" cy="170.5" r="1.5"/><circle id="Oval-70-Copy-13" cx="801.5" cy="261.5" r="1.5" filter="url(#filter-8)"/><circle id="Oval-70-Copy-7" cx="981.5" cy="211.5" r="1.5" filter="url(#filter-9)"/><circle id="Oval-70-Copy-8" cx="1101.5" cy="251.5" r="1.5" filter="url(#filter-10)"/><circle id="Oval-70-Copy-9" cx="891.5" cy="191.5" r="1.5" filter="url(#filter-11)"/><circle id="Oval-70-Copy-10" cx="661.5" cy="151.5" r="1.5" filter="url(#filter-12)"/><circle id="Oval-70-Copy-11" cx="571.5" cy="71.5" r="1.5" filter="url(#filter-13)"/><circle id="Oval-70-Copy-12" cx="931.5" cy="71.5" r="1.5" filter="url(#filter-14)"/><circle id="Oval-74-Copy-4" cx="911.5" cy="290.5" r="1.5"/><circle id="Oval-74-Copy-5" cx="791.5" cy="160.5" r="1.5"/><circle id="Oval-74-Copy-6" cx="821.5" cy="140.5" r="1.5"/><circle id="Oval-74-Copy-7" cx="711.5" cy="240.5" r="1.5"/><circle id="Oval-70-Copy-20" cx="231.5" cy="441.5" r="1.5" filter="url(#filter-15)" opacity=".254"/><circle id="Oval-70-Copy-14" cx="411.5" cy="391.5" r="1.5" filter="url(#filter-16)" opacity=".254"/><circle id="Oval-70-Copy-15" cx="531.5" cy="431.5" r="1.5" filter="url(#filter-17)" opacity=".254"/><circle id="Oval-70-Copy-16" cx="321.5" cy="371.5" r="1.5" filter="url(#filter-18)" opacity=".254"/><circle id="Oval-70-Copy-17" cx="91.5" cy="331.5" r="1.5" filter="url(#filter-19)" opacity=".254"/><circle id="Oval-70-Copy-18" cx="1.5" cy="251.5" r="1.5" filter="url(#filter-20)" opacity=".254"/><circle id="Oval-70-Copy-19" cx="361.5" cy="251.5" r="1.5" filter="url(#filter-21)" opacity=".254"/><circle id="Oval-74-Copy-8" cx="341.5" cy="470.5" r="1.5" opacity=".254"/><circle id="Oval-74-Copy-9" cx="221.5" cy="340.5" r="1.5" opacity=".254"/><circle id="Oval-74-Copy-10" cx="251.5" cy="320.5" r="1.5" opacity=".254"/><circle id="Oval-74-Copy-11" cx="141.5" cy="420.5" r="1.5" opacity=".254"/><circle id="Oval-70-Copy-27" cx="751.5" cy="481.5" r="1.5" filter="url(#filter-22)" opacity=".209"/><circle id="Oval-70-Copy-21" cx="931.5" cy="431.5" r="1.5" filter="url(#filter-23)" opacity=".209"/><circle id="Oval-70-Copy-22" cx="1051.5" cy="471.5" r="1.5" filter="url(#filter-24)" opacity=".209"/><circle id="Oval-70-Copy-23" cx="841.5" cy="411.5" r="1.5" filter="url(#filter-25)" opacity=".209"/><circle id="Oval-70-Copy-24" cx="611.5" cy="371.5" r="1.5" filter="url(#filter-26)" opacity=".209"/><circle id="Oval-70-Copy-25" cx="521.5" cy="291.5" r="1.5" filter="url(#filter-27)" opacity=".209"/><circle id="Oval-70-Copy-26" cx="881.5" cy="291.5" r="1.5" filter="url(#filter-28)" opacity=".209"/><circle id="Oval-74-Copy-12" cx="861.5" cy="510.5" r="1.5" opacity=".209"/><circle id="Oval-74-Copy-13" cx="741.5" cy="380.5" r="1.5" opacity=".209"/><circle id="Oval-74-Copy-14" cx="771.5" cy="360.5" r="1.5" opacity=".209"/><circle id="Oval-74-Copy-15" cx="661.5" cy="460.5" r="1.5" opacity=".209"/></g></g></g></svg>